<svg width="32" height="32" viewBox="0 0 32 32" fill="none" xmlns="http://www.w3.org/2000/svg">
<path d="M16.0003 29.3334C23.3641 29.3334 29.3337 23.3639 29.3337 16.0001C29.3337 8.63628 23.3641 2.66675 16.0003 2.66675C8.63653 2.66675 2.66699 8.63628 2.66699 16.0001C2.66699 23.3639 8.63653 29.3334 16.0003 29.3334Z" stroke="#4A90E2" stroke-width="2" stroke-linecap="round" stroke-linejoin="round"/>
<path d="M16 24C20.4183 24 24 20.4183 24 16C24 11.5817 20.4183 8 16 8C11.5817 8 8 11.5817 8 16C8 20.4183 11.5817 24 16 24Z" stroke="#4A90E2" stroke-width="2" stroke-linecap="round" stroke-linejoin="round"/>
<path d="M15.9997 18.6666C17.4724 18.6666 18.6663 17.4727 18.6663 15.9999C18.6663 14.5272 17.4724 13.3333 15.9997 13.3333C14.5269 13.3333 13.333 14.5272 13.333 15.9999C13.333 17.4727 14.5269 18.6666 15.9997 18.6666Z" stroke="#4A90E2" stroke-width="2" stroke-linecap="round" stroke-linejoin="round"/>
</svg>
